<svg width="436" height="93" viewBox="0 0 436 93" fill="none" xmlns="http://www.w3.org/2000/svg">
<rect width="436" height="93" rx="46.5" fill="#CCE3E7"/>
<path d="M53.1245 35.328H41.0285V28.2H73.9685V35.328H61.8725V66H53.1245V35.328ZM78.6754 28.2H87.4234V66H78.6754V28.2ZM114.484 66.648C110.632 66.648 107.14 65.82 104.008 64.164C100.912 62.472 98.4641 60.15 96.6641 57.198C94.9001 54.21 94.0181 50.844 94.0181 47.1C94.0181 43.356 94.9001 40.008 96.6641 37.056C98.4641 34.068 100.912 31.746 104.008 30.09C107.14 28.398 110.65 27.552 114.538 27.552C117.814 27.552 120.766 28.128 123.394 29.28C126.058 30.432 128.29 32.088 130.09 34.248L124.474 39.432C121.918 36.48 118.75 35.004 114.97 35.004C112.63 35.004 110.542 35.526 108.706 36.57C106.87 37.578 105.43 39 104.386 40.836C103.378 42.672 102.874 44.76 102.874 47.1C102.874 49.44 103.378 51.528 104.386 53.364C105.43 55.2 106.87 56.64 108.706 57.684C110.542 58.692 112.63 59.196 114.97 59.196C118.75 59.196 121.918 57.702 124.474 54.714L130.09 59.898C128.29 62.094 126.058 63.768 123.394 64.92C120.73 66.072 117.76 66.648 114.484 66.648ZM134.007 47.424H149.289V54.174H134.007V47.424ZM162.39 35.328H150.294V28.2H183.234V35.328H171.138V66H162.39V35.328ZM210.937 57.9H193.387L190.039 66H181.075L197.923 28.2H206.563L223.465 66H214.285L210.937 57.9ZM208.183 51.258L202.189 36.786L196.195 51.258H208.183ZM244.949 66.648C241.097 66.648 237.605 65.82 234.473 64.164C231.377 62.472 228.929 60.15 227.129 57.198C225.365 54.21 224.483 50.844 224.483 47.1C224.483 43.356 225.365 40.008 227.129 37.056C228.929 34.068 231.377 31.746 234.473 30.09C237.605 28.398 241.115 27.552 245.003 27.552C248.279 27.552 251.231 28.128 253.859 29.28C256.523 30.432 258.755 32.088 260.555 34.248L254.939 39.432C252.383 36.48 249.215 35.004 245.435 35.004C243.095 35.004 241.007 35.526 239.171 36.57C237.335 37.578 235.895 39 234.851 40.836C233.843 42.672 233.339 44.76 233.339 47.1C233.339 49.44 233.843 51.528 234.851 53.364C235.895 55.2 237.335 56.64 239.171 57.684C241.007 58.692 243.095 59.196 245.435 59.196C249.215 59.196 252.383 57.702 254.939 54.714L260.555 59.898C258.755 62.094 256.523 63.768 253.859 64.92C251.195 66.072 248.225 66.648 244.949 66.648ZM264.472 47.424H279.754V54.174H264.472V47.424ZM292.855 35.328H280.759V28.2H313.699V35.328L301.603 35.328V66H292.855V35.328ZM336.184 66.648C332.26 66.648 328.714 65.802 325.546 64.11C322.414 62.418 319.948 60.096 318.148 57.144C316.384 54.156 315.502 50.808 315.502 47.1C315.502 43.392 316.384 40.062 318.148 37.11C319.948 34.122 322.414 31.782 325.546 30.09C328.714 28.398 332.26 27.552 336.184 27.552C340.108 27.552 343.636 28.398 346.768 30.09C349.9 31.782 352.366 34.122 354.166 37.11C355.966 40.062 356.866 43.392 356.866 47.1C356.866 50.808 355.966 54.156 354.166 57.144C352.366 60.096 349.9 62.418 346.768 64.11C343.636 65.802 340.108 66.648 336.184 66.648ZM336.184 59.196C338.416 59.196 340.432 58.692 342.232 57.684C344.032 56.64 345.436 55.2 346.444 53.364C347.488 51.528 348.01 49.44 348.01 47.1C348.01 44.76 347.488 42.672 346.444 40.836C345.436 39 344.032 37.578 342.232 36.57C340.432 35.526 338.416 35.004 336.184 35.004C333.952 35.004 331.936 35.526 330.136 36.57C328.336 37.578 326.914 39 325.87 40.836C324.862 42.672 324.358 44.76 324.358 47.1C324.358 49.44 324.862 51.528 325.87 53.364C326.914 55.2 328.336 56.64 330.136 57.684C331.936 58.692 333.952 59.196 336.184 59.196ZM392.709 58.98V66H363.441V28.2H392.007V35.22H372.135V43.428H389.685V50.232H372.135V58.98H392.709Z" fill="#35464A"/>
</svg>
