<svg width="444" height="101" viewBox="0 0 444 101" fill="none" xmlns="http://www.w3.org/2000/svg">
<g filter="url(#filter0_d_314_63)">
<rect x="4" width="436" height="93" rx="46.5" fill="#64787B"/>
<path d="M57.1245 35.328H45.0285V28.2H77.9685V35.328H65.8725V66H57.1245V35.328ZM82.6754 28.2H91.4234V66H82.6754V28.2ZM118.484 66.648C114.632 66.648 111.14 65.82 108.008 64.164C104.912 62.472 102.464 60.15 100.664 57.198C98.9001 54.21 98.0181 50.844 98.0181 47.1C98.0181 43.356 98.9001 40.008 100.664 37.056C102.464 34.068 104.912 31.746 108.008 30.09C111.14 28.398 114.65 27.552 118.538 27.552C121.814 27.552 124.766 28.128 127.394 29.28C130.058 30.432 132.29 32.088 134.09 34.248L128.474 39.432C125.918 36.48 122.75 35.004 118.97 35.004C116.63 35.004 114.542 35.526 112.706 36.57C110.87 37.578 109.43 39 108.386 40.836C107.378 42.672 106.874 44.76 106.874 47.1C106.874 49.44 107.378 51.528 108.386 53.364C109.43 55.2 110.87 56.64 112.706 57.684C114.542 58.692 116.63 59.196 118.97 59.196C122.75 59.196 125.918 57.702 128.474 54.714L134.09 59.898C132.29 62.094 130.058 63.768 127.394 64.92C124.73 66.072 121.76 66.648 118.484 66.648ZM138.007 47.424H153.289V54.174H138.007V47.424ZM166.39 35.328H154.294V28.2H187.234V35.328H175.138V66H166.39V35.328ZM214.937 57.9H197.387L194.039 66H185.075L201.923 28.2H210.563L227.465 66H218.285L214.937 57.9ZM212.183 51.258L206.189 36.786L200.195 51.258H212.183ZM248.949 66.648C245.097 66.648 241.605 65.82 238.473 64.164C235.377 62.472 232.929 60.15 231.129 57.198C229.365 54.21 228.483 50.844 228.483 47.1C228.483 43.356 229.365 40.008 231.129 37.056C232.929 34.068 235.377 31.746 238.473 30.09C241.605 28.398 245.115 27.552 249.003 27.552C252.279 27.552 255.231 28.128 257.859 29.28C260.523 30.432 262.755 32.088 264.555 34.248L258.939 39.432C256.383 36.48 253.215 35.004 249.435 35.004C247.095 35.004 245.007 35.526 243.171 36.57C241.335 37.578 239.895 39 238.851 40.836C237.843 42.672 237.339 44.76 237.339 47.1C237.339 49.44 237.843 51.528 238.851 53.364C239.895 55.2 241.335 56.64 243.171 57.684C245.007 58.692 247.095 59.196 249.435 59.196C253.215 59.196 256.383 57.702 258.939 54.714L264.555 59.898C262.755 62.094 260.523 63.768 257.859 64.92C255.195 66.072 252.225 66.648 248.949 66.648ZM268.472 47.424H283.754V54.174H268.472V47.424ZM296.855 35.328H284.759V28.2H317.699V35.328L305.603 35.328V66H296.855V35.328ZM340.184 66.648C336.26 66.648 332.714 65.802 329.546 64.11C326.414 62.418 323.948 60.096 322.148 57.144C320.384 54.156 319.502 50.808 319.502 47.1C319.502 43.392 320.384 40.062 322.148 37.11C323.948 34.122 326.414 31.782 329.546 30.09C332.714 28.398 336.26 27.552 340.184 27.552C344.108 27.552 347.636 28.398 350.768 30.09C353.9 31.782 356.366 34.122 358.166 37.11C359.966 40.062 360.866 43.392 360.866 47.1C360.866 50.808 359.966 54.156 358.166 57.144C356.366 60.096 353.9 62.418 350.768 64.11C347.636 65.802 344.108 66.648 340.184 66.648ZM340.184 59.196C342.416 59.196 344.432 58.692 346.232 57.684C348.032 56.64 349.436 55.2 350.444 53.364C351.488 51.528 352.01 49.44 352.01 47.1C352.01 44.76 351.488 42.672 350.444 40.836C349.436 39 348.032 37.578 346.232 36.57C344.432 35.526 342.416 35.004 340.184 35.004C337.952 35.004 335.936 35.526 334.136 36.57C332.336 37.578 330.914 39 329.87 40.836C328.862 42.672 328.358 44.76 328.358 47.1C328.358 49.44 328.862 51.528 329.87 53.364C330.914 55.2 332.336 56.64 334.136 57.684C335.936 58.692 337.952 59.196 340.184 59.196ZM396.709 58.98V66H367.441V28.2H396.007V35.22H376.135V43.428H393.685V50.232H376.135V58.98H396.709Z" fill="#CCE3E7"/>
</g>
<defs>
<filter id="filter0_d_314_63" x="0" y="0" width="444" height="101" filterUnits="userSpaceOnUse" color-interpolation-filters="sRGB">
<feFlood flood-opacity="0" result="BackgroundImageFix"/>
<feColorMatrix in="SourceAlpha" type="matrix" values="0 0 0 0 0 0 0 0 0 0 0 0 0 0 0 0 0 0 127 0" result="hardAlpha"/>
<feOffset dy="4"/>
<feGaussianBlur stdDeviation="2"/>
<feComposite in2="hardAlpha" operator="out"/>
<feColorMatrix type="matrix" values="0 0 0 0 0 0 0 0 0 0 0 0 0 0 0 0 0 0 0.25 0"/>
<feBlend mode="normal" in2="BackgroundImageFix" result="effect1_dropShadow_314_63"/>
<feBlend mode="normal" in="SourceGraphic" in2="effect1_dropShadow_314_63" result="shape"/>
</filter>
</defs>
</svg>
